# 3ds Max Wavefront OBJ Exporter v0.99 - (c)2007 guruware
# 创建的文件:29.11.2022 21:56:40

#
# object Box001
#

v  -1.9685 -1.9685 -0.0000
v  -1.9685 1.9685 0.0000
v  1.9685 1.9685 0.0000
v  1.9685 -1.9685 -0.0000
v  -1.9685 -1.9685 3.9370
v  1.9685 -1.9685 3.9370
v  1.9685 1.9685 3.9370
v  -1.9685 1.9685 3.9370
# 8 vertices

vn 0.0000 0.0000 -1.0000
vn 0.0000 -0.0000 1.0000
vn 0.0000 -1.0000 -0.0000
vn 1.0000 0.0000 -0.0000
vn 0.0000 1.0000 0.0000
vn -1.0000 0.0000 -0.0000
# 6 vertex normals

o Box001
g Box001
s 2
f 1//1 2//1 3//1 
f 3//1 4//1 1//1 
s 4
f 5//2 6//2 7//2 
f 7//2 8//2 5//2 
s 8
f 1//3 4//3 6//3 
f 6//3 5//3 1//3 
s 16
f 4//4 3//4 7//4 
f 7//4 6//4 4//4 
s 32
f 3//5 2//5 8//5 
f 8//5 7//5 3//5 
s 64
f 2//6 1//6 5//6 
f 5//6 8//6 2//6 
# 12 faces

