# 3ds Max Wavefront OBJ Exporter v0.99 - (c)2007 guruware
# 创建的文件:06.12.2022 19:06:27

#
# object Sphere001
#

v  -20.52 -11.44 88.80
v  -20.52 -0.21 108.24
v  -37.36 -0.21 98.52
v  -37.36 -0.21 79.07
v  -20.52 -0.21 69.35
v  -3.68 -0.21 79.07
v  -3.68 -0.21 98.52
v  -37.36 22.24 98.52
v  -20.52 22.24 108.24
v  -37.36 22.24 79.07
v  -20.52 22.24 69.35
v  -3.68 22.24 79.07
v  -3.68 22.24 98.52
v  -20.52 33.47 88.80
v  -20.52 -40.76 88.80
v  -20.52 -29.53 108.24
v  -37.36 -29.53 98.52
v  -37.36 -29.53 79.07
v  -20.52 -29.53 69.35
v  -3.68 -29.53 79.07
v  -3.68 -29.53 98.52
v  -37.36 -7.08 98.52
v  -20.52 -7.08 108.24
v  -37.36 -7.08 79.07
v  -20.52 -7.08 69.35
v  -3.68 -7.08 79.07
v  -3.68 -7.08 98.52
v  -20.52 4.15 88.80
v  -2.39 25.87 99.64
v  -2.39 36.42 93.55
v  -11.53 31.14 93.55
v  -11.53 20.59 93.55
v  -2.39 15.32 93.55
v  6.75 20.59 93.55
v  6.75 31.14 93.55
v  -11.53 31.14 81.37
v  -2.39 36.42 81.37
v  -11.53 20.59 81.37
v  -2.39 15.32 81.37
v  6.75 20.59 81.37
v  6.75 31.14 81.37
v  -2.39 25.87 75.28
v  -32.63 -22.98 97.80
v  -32.63 -11.49 117.70
v  -49.86 -11.49 107.75
v  -49.86 -11.49 87.85
v  -32.63 -11.49 77.90
v  -15.39 -11.49 87.85
v  -15.39 -11.49 107.75
v  -49.86 11.49 107.75
v  -32.63 11.49 117.70
v  -49.86 11.49 87.85
v  -32.63 11.49 77.90
v  -15.39 11.49 87.85
v  -15.39 11.49 107.75
v  -32.63 22.98 97.80
v  8.81 -24.99 75.54
v  8.81 -12.50 97.19
v  -9.94 -12.50 86.36
v  -9.94 -12.50 64.72
v  8.81 -12.50 53.90
v  27.55 -12.50 64.72
v  27.55 -12.50 86.36
v  -9.94 12.50 86.36
v  8.81 12.50 97.19
v  -9.94 12.50 64.72
v  8.81 12.50 53.90
v  27.55 12.50 64.72
v  27.55 12.50 86.36
v  8.81 24.99 75.54
v  8.67 -27.64 139.28
v  8.67 -2.59 124.82
v  -13.03 -15.11 124.82
v  -13.03 -40.16 124.82
v  8.67 -52.69 124.82
v  30.36 -40.16 124.82
v  30.36 -15.11 124.82
v  -13.03 -15.11 95.90
v  8.67 -2.59 95.90
v  -13.03 -40.16 95.90
v  8.67 -52.69 95.90
v  30.36 -40.16 95.90
v  30.36 -15.11 95.90
v  8.67 -27.64 81.44
v  6.85 25.27 130.73
v  6.85 44.97 119.36
v  -10.21 35.12 119.36
v  -10.21 15.42 119.36
v  6.85 5.56 119.36
v  23.91 15.42 119.36
v  23.91 35.12 119.36
v  -10.21 35.12 96.61
v  6.85 44.97 96.61
v  -10.21 15.42 96.61
v  6.85 5.56 96.61
v  23.91 15.42 96.61
v  23.91 35.12 96.61
v  6.85 25.27 85.23
v  0.47 -24.91 136.02
v  0.47 -12.46 157.60
v  -18.22 -12.46 146.81
v  -18.22 -12.46 125.23
v  0.47 -12.46 114.45
v  19.15 -12.46 125.23
v  19.15 -12.46 146.81
v  -18.22 12.46 146.81
v  0.47 12.46 157.60
v  -18.22 12.46 125.23
v  0.47 12.46 114.45
v  19.15 12.46 125.23
v  19.15 12.46 146.81
v  0.47 24.91 136.02
v  36.07 -30.78 122.68
v  36.07 -15.39 149.34
v  12.99 -15.39 136.01
v  12.99 -15.39 109.35
v  36.07 -15.39 96.02
v  59.16 -15.39 109.35
v  59.16 -15.39 136.01
v  12.99 15.39 136.01
v  36.07 15.39 149.34
v  12.99 15.39 109.35
v  36.07 15.39 96.02
v  59.16 15.39 109.35
v  59.16 15.39 136.01
v  36.07 30.78 122.68
v  -20.85 -20.88 122.98
v  -20.85 -10.44 141.07
v  -36.51 -10.44 132.03
v  -36.51 -10.44 113.94
v  -20.85 -10.44 104.90
v  -5.19 -10.44 113.94
v  -5.19 -10.44 132.03
v  -36.51 10.44 132.03
v  -20.85 10.44 141.07
v  -36.51 10.44 113.94
v  -20.85 10.44 104.90
v  -5.19 10.44 113.94
v  -5.19 10.44 132.03
v  -20.85 20.88 122.98
v  6.85 -22.81 112.63
v  6.85 -11.41 132.39
v  -10.26 -11.41 122.51
v  -10.26 -11.41 102.75
v  6.85 -11.41 92.87
v  23.96 -11.41 102.75
v  23.96 -11.41 122.51
v  -10.26 11.41 122.51
v  6.85 11.41 132.39
v  -10.26 11.41 102.75
v  6.85 11.41 92.87
v  23.96 11.41 102.75
v  23.96 11.41 122.51
v  6.85 22.81 112.63
v  33.94 -27.58 93.76
v  33.94 -13.79 117.65
v  13.26 -13.79 105.70
v  13.26 -13.79 81.82
v  33.94 -13.79 69.87
v  54.63 -13.79 81.82
v  54.63 -13.79 105.70
v  13.26 13.79 105.70
v  33.94 13.79 117.65
v  13.26 13.79 81.82
v  33.94 13.79 69.87
v  54.63 13.79 81.82
v  54.63 13.79 105.70
v  33.94 27.58 93.76
# 168 vertices

vn -0.00 -1.00 -0.00
vn 0.00 -0.44 0.90
vn -0.78 -0.44 0.45
vn -0.78 -0.44 -0.45
vn -0.00 -0.44 -0.90
vn 0.78 -0.44 -0.45
vn 0.78 -0.44 0.45
vn -0.78 0.44 0.45
vn 0.00 0.44 0.90
vn -0.78 0.44 -0.45
vn -0.00 0.44 -0.90
vn 0.78 0.44 -0.45
vn 0.78 0.44 0.45
vn -0.00 1.00 0.00
vn -0.00 0.00 1.00
vn 0.00 0.90 0.44
vn -0.78 0.45 0.44
vn -0.78 -0.45 0.44
vn 0.00 -0.90 0.44
vn 0.78 -0.45 0.44
vn 0.78 0.45 0.44
vn -0.78 0.45 -0.44
vn 0.00 0.90 -0.44
vn -0.78 -0.45 -0.44
vn -0.00 -0.90 -0.44
vn 0.78 -0.45 -0.44
vn 0.78 0.45 -0.44
vn 0.00 0.00 -1.00
vn 0.00 0.00 1.00
vn -0.00 -0.90 0.44
vn -0.00 0.00 -1.00
vn 0.00 -1.00 -0.00
vn 0.00 -0.44 -0.90
vn 0.00 1.00 0.00
# 34 vertex normals

vt 0.00 1.00 0.00
vt 0.00 0.67 0.00
vt 0.17 0.67 0.00
vt 0.17 1.00 0.00
vt 0.33 0.67 0.00
vt 0.33 1.00 0.00
vt 0.50 0.67 0.00
vt 0.50 1.00 0.00
vt 0.67 0.67 0.00
vt 0.67 1.00 0.00
vt 0.83 0.67 0.00
vt 0.83 1.00 0.00
vt 1.00 0.67 0.00
vt 0.17 0.33 0.00
vt 0.00 0.33 0.00
vt 0.33 0.33 0.00
vt 0.50 0.33 0.00
vt 0.67 0.33 0.00
vt 0.83 0.33 0.00
vt 1.00 0.33 0.00
vt 0.00 0.00 0.00
vt 0.17 0.00 0.00
vt 0.33 0.00 0.00
vt 0.50 0.00 0.00
vt 0.67 0.00 0.00
vt 0.83 0.00 0.00
# 26 texture coords

o Sphere001
g Sphere001
f 1/1/1 2/2/2 3/3/3 
f 1/4/1 3/3/3 4/5/4 
f 1/6/1 4/5/4 5/7/5 
f 1/8/1 5/7/5 6/9/6 
f 1/10/1 6/9/6 7/11/7 
f 1/12/1 7/11/7 2/13/2 
f 8/14/8 3/3/3 2/2/2 
f 2/2/2 9/15/9 8/14/8 
f 10/16/10 4/5/4 3/3/3 
f 3/3/3 8/14/8 10/16/10 
f 11/17/11 5/7/5 4/5/4 
f 4/5/4 10/16/10 11/17/11 
f 12/18/12 6/9/6 5/7/5 
f 5/7/5 11/17/11 12/18/12 
f 13/19/13 7/11/7 6/9/6 
f 6/9/6 12/18/12 13/19/13 
f 9/20/9 2/13/2 7/11/7 
f 7/11/7 13/19/13 9/20/9 
f 14/21/14 8/14/8 9/15/9 
f 14/22/14 10/16/10 8/14/8 
f 14/23/14 11/17/11 10/16/10 
f 14/24/14 12/18/12 11/17/11 
f 14/25/14 13/19/13 12/18/12 
f 14/26/14 9/20/9 13/19/13 
f 15/1/1 16/2/2 17/3/3 
f 15/4/1 17/3/3 18/5/4 
f 15/6/1 18/5/4 19/7/5 
f 15/8/1 19/7/5 20/9/6 
f 15/10/1 20/9/6 21/11/7 
f 15/12/1 21/11/7 16/13/2 
f 22/14/8 17/3/3 16/2/2 
f 16/2/2 23/15/9 22/14/8 
f 24/16/10 18/5/4 17/3/3 
f 17/3/3 22/14/8 24/16/10 
f 25/17/11 19/7/5 18/5/4 
f 18/5/4 24/16/10 25/17/11 
f 26/18/12 20/9/6 19/7/5 
f 19/7/5 25/17/11 26/18/12 
f 27/19/13 21/11/7 20/9/6 
f 20/9/6 26/18/12 27/19/13 
f 23/20/9 16/13/2 21/11/7 
f 21/11/7 27/19/13 23/20/9 
f 28/21/14 22/14/8 23/15/9 
f 28/22/14 24/16/10 22/14/8 
f 28/23/14 25/17/11 24/16/10 
f 28/24/14 26/18/12 25/17/11 
f 28/25/14 27/19/13 26/18/12 
f 28/26/14 23/20/9 27/19/13 
f 29/1/15 30/2/16 31/3/17 
f 29/4/15 31/3/17 32/5/18 
f 29/6/15 32/5/18 33/7/19 
f 29/8/15 33/7/19 34/9/20 
f 29/10/15 34/9/20 35/11/21 
f 29/12/15 35/11/21 30/13/16 
f 36/14/22 31/3/17 30/2/16 
f 30/2/16 37/15/23 36/14/22 
f 38/16/24 32/5/18 31/3/17 
f 31/3/17 36/14/22 38/16/24 
f 39/17/25 33/7/19 32/5/18 
f 32/5/18 38/16/24 39/17/25 
f 40/18/26 34/9/20 33/7/19 
f 33/7/19 39/17/25 40/18/26 
f 41/19/27 35/11/21 34/9/20 
f 34/9/20 40/18/26 41/19/27 
f 37/20/23 30/13/16 35/11/21 
f 35/11/21 41/19/27 37/20/23 
f 42/21/28 36/14/22 37/15/23 
f 42/22/28 38/16/24 36/14/22 
f 42/23/28 39/17/25 38/16/24 
f 42/24/28 40/18/26 39/17/25 
f 42/25/28 41/19/27 40/18/26 
f 42/26/28 37/20/23 41/19/27 
f 43/1/1 44/2/2 45/3/3 
f 43/4/1 45/3/3 46/5/4 
f 43/6/1 46/5/4 47/7/5 
f 43/8/1 47/7/5 48/9/6 
f 43/10/1 48/9/6 49/11/7 
f 43/12/1 49/11/7 44/13/2 
f 50/14/8 45/3/3 44/2/2 
f 44/2/2 51/15/9 50/14/8 
f 52/16/10 46/5/4 45/3/3 
f 45/3/3 50/14/8 52/16/10 
f 53/17/11 47/7/5 46/5/4 
f 46/5/4 52/16/10 53/17/11 
f 54/18/12 48/9/6 47/7/5 
f 47/7/5 53/17/11 54/18/12 
f 55/19/13 49/11/7 48/9/6 
f 48/9/6 54/18/12 55/19/13 
f 51/20/9 44/13/2 49/11/7 
f 49/11/7 55/19/13 51/20/9 
f 56/21/14 50/14/8 51/15/9 
f 56/22/14 52/16/10 50/14/8 
f 56/23/14 53/17/11 52/16/10 
f 56/24/14 54/18/12 53/17/11 
f 56/25/14 55/19/13 54/18/12 
f 56/26/14 51/20/9 55/19/13 
f 57/1/1 58/2/2 59/3/3 
f 57/4/1 59/3/3 60/5/4 
f 57/6/1 60/5/4 61/7/5 
f 57/8/1 61/7/5 62/9/6 
f 57/10/1 62/9/6 63/11/7 
f 57/12/1 63/11/7 58/13/2 
f 64/14/8 59/3/3 58/2/2 
f 58/2/2 65/15/9 64/14/8 
f 66/16/10 60/5/4 59/3/3 
f 59/3/3 64/14/8 66/16/10 
f 67/17/11 61/7/5 60/5/4 
f 60/5/4 66/16/10 67/17/11 
f 68/18/12 62/9/6 61/7/5 
f 61/7/5 67/17/11 68/18/12 
f 69/19/13 63/11/7 62/9/6 
f 62/9/6 68/18/12 69/19/13 
f 65/20/9 58/13/2 63/11/7 
f 63/11/7 69/19/13 65/20/9 
f 70/21/14 64/14/8 65/15/9 
f 70/22/14 66/16/10 64/14/8 
f 70/23/14 67/17/11 66/16/10 
f 70/24/14 68/18/12 67/17/11 
f 70/25/14 69/19/13 68/18/12 
f 70/26/14 65/20/9 69/19/13 
f 71/1/29 72/2/16 73/3/17 
f 71/4/29 73/3/17 74/5/18 
f 71/6/29 74/5/18 75/7/30 
f 71/8/29 75/7/30 76/9/20 
f 71/10/29 76/9/20 77/11/21 
f 71/12/29 77/11/21 72/13/16 
f 78/14/22 73/3/17 72/2/16 
f 72/2/16 79/15/23 78/14/22 
f 80/16/24 74/5/18 73/3/17 
f 73/3/17 78/14/22 80/16/24 
f 81/17/25 75/7/30 74/5/18 
f 74/5/18 80/16/24 81/17/25 
f 82/18/26 76/9/20 75/7/30 
f 75/7/30 81/17/25 82/18/26 
f 83/19/27 77/11/21 76/9/20 
f 76/9/20 82/18/26 83/19/27 
f 79/20/23 72/13/16 77/11/21 
f 77/11/21 83/19/27 79/20/23 
f 84/21/28 78/14/22 79/15/23 
f 84/22/28 80/16/24 78/14/22 
f 84/23/28 81/17/25 80/16/24 
f 84/24/28 82/18/26 81/17/25 
f 84/25/28 83/19/27 82/18/26 
f 84/26/28 79/20/23 83/19/27 
f 85/1/15 86/2/16 87/3/17 
f 85/4/15 87/3/17 88/5/18 
f 85/6/15 88/5/18 89/7/30 
f 85/8/15 89/7/30 90/9/20 
f 85/10/15 90/9/20 91/11/21 
f 85/12/15 91/11/21 86/13/16 
f 92/14/22 87/3/17 86/2/16 
f 86/2/16 93/15/23 92/14/22 
f 94/16/24 88/5/18 87/3/17 
f 87/3/17 92/14/22 94/16/24 
f 95/17/25 89/7/30 88/5/18 
f 88/5/18 94/16/24 95/17/25 
f 96/18/26 90/9/20 89/7/30 
f 89/7/30 95/17/25 96/18/26 
f 97/19/27 91/11/21 90/9/20 
f 90/9/20 96/18/26 97/19/27 
f 93/20/23 86/13/16 91/11/21 
f 91/11/21 97/19/27 93/20/23 
f 98/21/31 92/14/22 93/15/23 
f 98/22/31 94/16/24 92/14/22 
f 98/23/31 95/17/25 94/16/24 
f 98/24/31 96/18/26 95/17/25 
f 98/25/31 97/19/27 96/18/26 
f 98/26/31 93/20/23 97/19/27 
f 99/1/1 100/2/2 101/3/3 
f 99/4/1 101/3/3 102/5/4 
f 99/6/1 102/5/4 103/7/5 
f 99/8/1 103/7/5 104/9/6 
f 99/10/1 104/9/6 105/11/7 
f 99/12/1 105/11/7 100/13/2 
f 106/14/8 101/3/3 100/2/2 
f 100/2/2 107/15/9 106/14/8 
f 108/16/10 102/5/4 101/3/3 
f 101/3/3 106/14/8 108/16/10 
f 109/17/11 103/7/5 102/5/4 
f 102/5/4 108/16/10 109/17/11 
f 110/18/12 104/9/6 103/7/5 
f 103/7/5 109/17/11 110/18/12 
f 111/19/13 105/11/7 104/9/6 
f 104/9/6 110/18/12 111/19/13 
f 107/20/9 100/13/2 105/11/7 
f 105/11/7 111/19/13 107/20/9 
f 112/21/14 106/14/8 107/15/9 
f 112/22/14 108/16/10 106/14/8 
f 112/23/14 109/17/11 108/16/10 
f 112/24/14 110/18/12 109/17/11 
f 112/25/14 111/19/13 110/18/12 
f 112/26/14 107/20/9 111/19/13 
f 113/1/32 114/2/2 115/3/3 
f 113/4/32 115/3/3 116/5/4 
f 113/6/32 116/5/4 117/7/33 
f 113/8/32 117/7/33 118/9/6 
f 113/10/32 118/9/6 119/11/7 
f 113/12/32 119/11/7 114/13/2 
f 120/14/8 115/3/3 114/2/2 
f 114/2/2 121/15/9 120/14/8 
f 122/16/10 116/5/4 115/3/3 
f 115/3/3 120/14/8 122/16/10 
f 123/17/11 117/7/33 116/5/4 
f 116/5/4 122/16/10 123/17/11 
f 124/18/12 118/9/6 117/7/33 
f 117/7/33 123/17/11 124/18/12 
f 125/19/13 119/11/7 118/9/6 
f 118/9/6 124/18/12 125/19/13 
f 121/20/9 114/13/2 119/11/7 
f 119/11/7 125/19/13 121/20/9 
f 126/21/34 120/14/8 121/15/9 
f 126/22/34 122/16/10 120/14/8 
f 126/23/34 123/17/11 122/16/10 
f 126/24/34 124/18/12 123/17/11 
f 126/25/34 125/19/13 124/18/12 
f 126/26/34 121/20/9 125/19/13 
f 127/1/32 128/2/2 129/3/3 
f 127/4/32 129/3/3 130/5/4 
f 127/6/32 130/5/4 131/7/5 
f 127/8/32 131/7/5 132/9/6 
f 127/10/32 132/9/6 133/11/7 
f 127/12/32 133/11/7 128/13/2 
f 134/14/8 129/3/3 128/2/2 
f 128/2/2 135/15/9 134/14/8 
f 136/16/10 130/5/4 129/3/3 
f 129/3/3 134/14/8 136/16/10 
f 137/17/11 131/7/5 130/5/4 
f 130/5/4 136/16/10 137/17/11 
f 138/18/12 132/9/6 131/7/5 
f 131/7/5 137/17/11 138/18/12 
f 139/19/13 133/11/7 132/9/6 
f 132/9/6 138/18/12 139/19/13 
f 135/20/9 128/13/2 133/11/7 
f 133/11/7 139/19/13 135/20/9 
f 140/21/14 134/14/8 135/15/9 
f 140/22/14 136/16/10 134/14/8 
f 140/23/14 137/17/11 136/16/10 
f 140/24/14 138/18/12 137/17/11 
f 140/25/14 139/19/13 138/18/12 
f 140/26/14 135/20/9 139/19/13 
f 141/1/1 142/2/2 143/3/3 
f 141/4/1 143/3/3 144/5/4 
f 141/6/1 144/5/4 145/7/5 
f 141/8/1 145/7/5 146/9/6 
f 141/10/1 146/9/6 147/11/7 
f 141/12/1 147/11/7 142/13/2 
f 148/14/8 143/3/3 142/2/2 
f 142/2/2 149/15/9 148/14/8 
f 150/16/10 144/5/4 143/3/3 
f 143/3/3 148/14/8 150/16/10 
f 151/17/11 145/7/5 144/5/4 
f 144/5/4 150/16/10 151/17/11 
f 152/18/12 146/9/6 145/7/5 
f 145/7/5 151/17/11 152/18/12 
f 153/19/13 147/11/7 146/9/6 
f 146/9/6 152/18/12 153/19/13 
f 149/20/9 142/13/2 147/11/7 
f 147/11/7 153/19/13 149/20/9 
f 154/21/14 148/14/8 149/15/9 
f 154/22/14 150/16/10 148/14/8 
f 154/23/14 151/17/11 150/16/10 
f 154/24/14 152/18/12 151/17/11 
f 154/25/14 153/19/13 152/18/12 
f 154/26/14 149/20/9 153/19/13 
f 155/1/32 156/2/2 157/3/3 
f 155/4/32 157/3/3 158/5/4 
f 155/6/32 158/5/4 159/7/33 
f 155/8/32 159/7/33 160/9/6 
f 155/10/32 160/9/6 161/11/7 
f 155/12/32 161/11/7 156/13/2 
f 162/14/8 157/3/3 156/2/2 
f 156/2/2 163/15/9 162/14/8 
f 164/16/10 158/5/4 157/3/3 
f 157/3/3 162/14/8 164/16/10 
f 165/17/11 159/7/33 158/5/4 
f 158/5/4 164/16/10 165/17/11 
f 166/18/12 160/9/6 159/7/33 
f 159/7/33 165/17/11 166/18/12 
f 167/19/13 161/11/7 160/9/6 
f 160/9/6 166/18/12 167/19/13 
f 163/20/9 156/13/2 161/11/7 
f 161/11/7 167/19/13 163/20/9 
f 168/21/34 162/14/8 163/15/9 
f 168/22/34 164/16/10 162/14/8 
f 168/23/34 165/17/11 164/16/10 
f 168/24/34 166/18/12 165/17/11 
f 168/25/34 167/19/13 166/18/12 
f 168/26/34 163/20/9 167/19/13 
# 288 faces

