# 3ds Max Wavefront OBJ Exporter v0.99 - (c)2007 guruware
# 创建的文件:11.12.2022 19:20:47

#
# object Box018
#

v  -39.37 -1.53 12.44
v  -39.37 2.41 12.44
v  39.37 2.41 12.44
v  39.37 -1.53 12.44
v  -39.37 -1.53 13.62
v  39.37 -1.53 13.62
v  39.37 2.41 13.62
v  -39.37 2.41 13.62
v  -39.37 10.47 25.81
v  -39.37 10.47 29.75
v  39.37 10.47 29.75
v  39.37 10.47 25.81
v  -39.37 9.29 25.81
v  39.37 9.29 25.81
v  39.37 9.29 29.75
v  -39.37 9.29 29.75
v  -39.37 10.47 19.93
v  -39.37 10.47 23.86
v  39.37 10.47 23.86
v  39.37 10.47 19.93
v  -39.37 9.29 19.93
v  39.37 9.29 19.93
v  39.37 9.29 23.86
v  -39.37 9.29 23.86
v  -39.37 10.47 14.04
v  -39.37 10.47 17.98
v  39.37 10.47 17.98
v  39.37 10.47 14.04
v  -39.37 9.29 14.04
v  39.37 9.29 14.04
v  39.37 9.29 17.98
v  -39.37 9.29 17.98
v  -39.37 3.77 12.44
v  -39.37 7.70 12.44
v  39.37 7.70 12.44
v  39.37 3.77 12.44
v  -39.37 3.77 13.62
v  39.37 3.77 13.62
v  39.37 7.70 13.62
v  -39.37 7.70 13.62
v  -39.37 -12.12 12.44
v  -39.37 -8.19 12.44
v  39.37 -8.19 12.44
v  39.37 -12.12 12.44
v  -39.37 -12.12 13.62
v  39.37 -12.12 13.62
v  39.37 -8.19 13.62
v  -39.37 -8.19 13.62
v  -39.37 -6.83 12.44
v  -39.37 -2.89 12.44
v  39.37 -2.89 12.44
v  39.37 -6.83 12.44
v  -39.37 -6.83 13.62
v  39.37 -6.83 13.62
v  39.37 -2.89 13.62
v  -39.37 -2.89 13.62
v  26.77 12.96 1.16
v  22.83 12.96 1.16
v  22.83 -2.79 1.16
v  26.77 -2.79 1.16
v  26.77 12.96 -0.02
v  26.77 -2.79 -0.02
v  22.83 -2.79 -0.02
v  22.83 12.96 -0.02
v  -21.87 12.96 1.16
v  -25.80 12.96 1.16
v  -25.80 -2.79 1.16
v  -21.87 -2.79 1.16
v  -21.87 12.96 -0.02
v  -21.87 -2.79 -0.02
v  -25.80 -2.79 -0.02
v  -25.80 12.96 -0.02
v  -21.87 10.54 27.72
v  -25.80 10.54 27.72
v  -25.80 10.54 0.16
v  -21.87 10.54 0.16
v  -21.87 11.72 27.72
v  -21.87 11.72 0.16
v  -25.80 11.72 0.16
v  -25.80 11.72 27.72
v  26.77 10.54 27.71
v  22.83 10.54 27.71
v  22.83 10.54 0.15
v  26.77 10.54 0.15
v  26.77 11.72 27.71
v  26.77 11.72 0.15
v  22.83 11.72 0.15
v  22.83 11.72 27.71
v  26.77 -11.83 11.19
v  22.83 -11.83 11.19
v  22.83 11.79 11.19
v  26.77 11.79 11.19
v  26.77 -11.83 12.37
v  26.77 11.79 12.37
v  22.83 11.79 12.37
v  22.83 -11.83 12.37
v  -21.87 -11.83 11.19
v  -25.80 -11.83 11.19
v  -25.80 11.79 11.19
v  -21.87 11.79 11.19
v  -21.87 -11.83 12.37
v  -21.87 11.79 12.37
v  -25.80 11.79 12.37
v  -25.80 -11.83 12.37
# 104 vertices

vn 0.00 0.00 -1.00
vn 0.00 0.00 1.00
vn 0.00 -1.00 0.00
vn 1.00 0.00 0.00
vn 0.00 1.00 0.00
vn -1.00 0.00 0.00
vn 0.00 -1.00 -0.00
vn -0.00 0.00 1.00
vn 0.00 -0.00 -1.00
vn -1.00 -0.00 0.00
vn -0.00 1.00 0.00
# 11 vertex normals

vt 1.00 0.00 0.00
vt 1.00 1.00 0.00
vt 0.00 1.00 0.00
vt 0.00 0.00 0.00
# 4 texture coords

o Box018
g Box018
f 1/1/1 2/2/1 3/3/1 
f 3/3/1 4/4/1 1/1/1 
f 5/4/2 6/1/2 7/2/2 
f 7/2/2 8/3/2 5/4/2 
f 1/4/3 4/1/3 6/2/3 
f 6/2/3 5/3/3 1/4/3 
f 4/4/4 3/1/4 7/2/4 
f 7/2/4 6/3/4 4/4/4 
f 3/4/5 2/1/5 8/2/5 
f 8/2/5 7/3/5 3/4/5 
f 2/4/6 1/1/6 5/2/6 
f 5/2/6 8/3/6 2/4/6 
f 9/1/5 10/2/5 11/3/5 
f 11/3/5 12/4/5 9/1/5 
f 13/4/7 14/1/7 15/2/7 
f 15/2/7 16/3/7 13/4/7 
f 9/4/1 12/1/1 14/2/1 
f 14/2/1 13/3/1 9/4/1 
f 12/4/4 11/1/4 15/2/4 
f 15/2/4 14/3/4 12/4/4 
f 11/4/2 10/1/2 16/2/2 
f 16/2/2 15/3/2 11/4/2 
f 10/4/6 9/1/6 13/2/6 
f 13/2/6 16/3/6 10/4/6 
f 17/1/5 18/2/5 19/3/5 
f 19/3/5 20/4/5 17/1/5 
f 21/4/7 22/1/7 23/2/7 
f 23/2/7 24/3/7 21/4/7 
f 17/4/1 20/1/1 22/2/1 
f 22/2/1 21/3/1 17/4/1 
f 20/4/4 19/1/4 23/2/4 
f 23/2/4 22/3/4 20/4/4 
f 19/4/2 18/1/2 24/2/2 
f 24/2/2 23/3/2 19/4/2 
f 18/4/6 17/1/6 21/2/6 
f 21/2/6 24/3/6 18/4/6 
f 25/1/5 26/2/5 27/3/5 
f 27/3/5 28/4/5 25/1/5 
f 29/4/7 30/1/7 31/2/7 
f 31/2/7 32/3/7 29/4/7 
f 25/4/1 28/1/1 30/2/1 
f 30/2/1 29/3/1 25/4/1 
f 28/4/4 27/1/4 31/2/4 
f 31/2/4 30/3/4 28/4/4 
f 27/4/2 26/1/2 32/2/2 
f 32/2/2 31/3/2 27/4/2 
f 26/4/6 25/1/6 29/2/6 
f 29/2/6 32/3/6 26/4/6 
f 33/1/1 34/2/1 35/3/1 
f 35/3/1 36/4/1 33/1/1 
f 37/4/2 38/1/2 39/2/2 
f 39/2/2 40/3/2 37/4/2 
f 33/4/3 36/1/3 38/2/3 
f 38/2/3 37/3/3 33/4/3 
f 36/4/4 35/1/4 39/2/4 
f 39/2/4 38/3/4 36/4/4 
f 35/4/5 34/1/5 40/2/5 
f 40/2/5 39/3/5 35/4/5 
f 34/4/6 33/1/6 37/2/6 
f 37/2/6 40/3/6 34/4/6 
f 41/1/1 42/2/1 43/3/1 
f 43/3/1 44/4/1 41/1/1 
f 45/4/2 46/1/2 47/2/2 
f 47/2/2 48/3/2 45/4/2 
f 41/4/3 44/1/3 46/2/3 
f 46/2/3 45/3/3 41/4/3 
f 44/4/4 43/1/4 47/2/4 
f 47/2/4 46/3/4 44/4/4 
f 43/4/5 42/1/5 48/2/5 
f 48/2/5 47/3/5 43/4/5 
f 42/4/6 41/1/6 45/2/6 
f 45/2/6 48/3/6 42/4/6 
f 49/1/1 50/2/1 51/3/1 
f 51/3/1 52/4/1 49/1/1 
f 53/4/2 54/1/2 55/2/2 
f 55/2/2 56/3/2 53/4/2 
f 49/4/3 52/1/3 54/2/3 
f 54/2/3 53/3/3 49/4/3 
f 52/4/4 51/1/4 55/2/4 
f 55/2/4 54/3/4 52/4/4 
f 51/4/5 50/1/5 56/2/5 
f 56/2/5 55/3/5 51/4/5 
f 50/4/6 49/1/6 53/2/6 
f 53/2/6 56/3/6 50/4/6 
f 57/1/8 58/2/8 59/3/8 
f 59/3/8 60/4/8 57/1/8 
f 61/4/9 62/1/9 63/2/9 
f 63/2/9 64/3/9 61/4/9 
f 57/4/4 60/1/4 62/2/4 
f 62/2/4 61/3/4 57/4/4 
f 60/4/3 59/1/3 63/2/3 
f 63/2/3 62/3/3 60/4/3 
f 59/4/10 58/1/10 64/2/10 
f 64/2/10 63/3/10 59/4/10 
f 58/4/11 57/1/11 61/2/11 
f 61/2/11 64/3/11 58/4/11 
f 65/1/8 66/2/8 67/3/8 
f 67/3/8 68/4/8 65/1/8 
f 69/4/9 70/1/9 71/2/9 
f 71/2/9 72/3/9 69/4/9 
f 65/4/4 68/1/4 70/2/4 
f 70/2/4 69/3/4 65/4/4 
f 68/4/3 67/1/3 71/2/3 
f 71/2/3 70/3/3 68/4/3 
f 67/4/10 66/1/10 72/2/10 
f 72/2/10 71/3/10 67/4/10 
f 66/4/11 65/1/11 69/2/11 
f 69/2/11 72/3/11 66/4/11 
f 73/1/7 74/2/7 75/3/7 
f 75/3/7 76/4/7 73/1/7 
f 77/4/11 78/1/11 79/2/11 
f 79/2/11 80/3/11 77/4/11 
f 73/4/4 76/1/4 78/2/4 
f 78/2/4 77/3/4 73/4/4 
f 76/4/1 75/1/1 79/2/1 
f 79/2/1 78/3/1 76/4/1 
f 75/4/6 74/1/6 80/2/6 
f 80/2/6 79/3/6 75/4/6 
f 74/4/2 73/1/2 77/2/2 
f 77/2/2 80/3/2 74/4/2 
f 81/1/7 82/2/7 83/3/7 
f 83/3/7 84/4/7 81/1/7 
f 85/4/11 86/1/11 87/2/11 
f 87/2/11 88/3/11 85/4/11 
f 81/4/4 84/1/4 86/2/4 
f 86/2/4 85/3/4 81/4/4 
f 84/4/1 83/1/1 87/2/1 
f 87/2/1 86/3/1 84/4/1 
f 83/4/6 82/1/6 88/2/6 
f 88/2/6 87/3/6 83/4/6 
f 82/4/2 81/1/2 85/2/2 
f 85/2/2 88/3/2 82/4/2 
f 89/1/1 90/2/1 91/3/1 
f 91/3/1 92/4/1 89/1/1 
f 93/4/2 94/1/2 95/2/2 
f 95/2/2 96/3/2 93/4/2 
f 89/4/4 92/1/4 94/2/4 
f 94/2/4 93/3/4 89/4/4 
f 92/4/5 91/1/5 95/2/5 
f 95/2/5 94/3/5 92/4/5 
f 91/4/10 90/1/10 96/2/10 
f 96/2/10 95/3/10 91/4/10 
f 90/4/3 89/1/3 93/2/3 
f 93/2/3 96/3/3 90/4/3 
f 97/1/1 98/2/1 99/3/1 
f 99/3/1 100/4/1 97/1/1 
f 101/4/2 102/1/2 103/2/2 
f 103/2/2 104/3/2 101/4/2 
f 97/4/4 100/1/4 102/2/4 
f 102/2/4 101/3/4 97/4/4 
f 100/4/5 99/1/5 103/2/5 
f 103/2/5 102/3/5 100/4/5 
f 99/4/10 98/1/10 104/2/10 
f 104/2/10 103/3/10 99/4/10 
f 98/4/3 97/1/3 101/2/3 
f 101/2/3 104/3/3 98/4/3 
# 156 faces

