# 3ds Max Wavefront OBJ Exporter v0.99 - (c)2007 guruware
# 创建的文件:18.12.2022 13:29:09

#
# object Box023
#

v  -6.89 -6.89 0.00
v  6.89 -6.89 0.00
v  6.89 -6.89 39.37
v  -6.89 -6.89 39.37
v  6.89 6.89 0.00
v  6.89 6.89 39.37
v  -6.89 6.89 0.00
v  -6.89 6.89 39.37
# 8 vertices

vn 0.00 -1.00 0.00
vn 1.00 0.00 0.00
vn 0.00 1.00 0.00
vn -1.00 0.00 0.00
# 4 vertex normals

vt 0.00 0.00 0.00
vt 1.00 0.00 0.00
vt 0.00 1.00 0.00
vt 1.00 1.00 0.00
vt 0.00 0.00 0.00
vt 1.00 0.00 0.00
vt 0.00 1.00 0.00
vt 1.00 1.00 0.00
vt 0.00 0.00 0.00
vt 1.00 0.00 0.00
vt 0.00 1.00 0.00
vt 1.00 1.00 0.00
vt 0.00 0.00 0.00
vt 1.00 0.00 0.00
vt 0.00 1.00 0.00
vt 1.00 1.00 0.00
# 16 texture coords

o Box023
g Box023
s 8
f 1/1/1 2/2/1 3/4/1 
f 3/4/1 4/3/1 1/1/1 
s 16
f 2/5/2 5/6/2 6/8/2 
f 6/8/2 3/7/2 2/5/2 
s 32
f 5/9/3 7/10/3 8/12/3 
f 8/12/3 6/11/3 5/9/3 
s 64
f 7/13/4 1/14/4 4/16/4 
f 4/16/4 8/15/4 7/13/4 
# 8 faces

