# 3ds Max Wavefront OBJ Exporter v0.99 - (c)2007 guruware
# 创建的文件:18.12.2022 11:34:57

#
# object Box022
#

v  -19.69 19.69 109.72
v  19.69 19.69 109.72
v  19.69 19.69 0.01
v  -19.69 19.69 0.01
v  19.69 -19.69 109.72
v  19.69 -19.69 0.01
v  -19.69 -19.69 109.72
v  -19.69 -19.69 0.01
# 8 vertices

vn 0.00 1.00 0.00
vn 1.00 0.00 0.00
vn 0.00 -1.00 -0.00
vn -1.00 0.00 0.00
# 4 vertex normals

vt 0.00 0.00 0.00
vt 1.00 0.00 0.00
vt 1.00 1.00 0.00
vt 0.00 1.00 0.00
# 4 texture coords

o Box022
g Box022
s 8
f 1/1/1 2/2/1 3/3/1 
f 3/3/1 4/4/1 1/1/1 
s 16
f 2/1/2 5/2/2 6/3/2 
f 6/3/2 3/4/2 2/1/2 
s 32
f 5/1/3 7/2/3 8/3/3 
f 8/3/3 6/4/3 5/1/3 
s 64
f 7/1/4 1/2/4 4/3/4 
f 4/3/4 8/4/4 7/1/4 
# 8 faces

